<?xml version="1.0" encoding="UTF-8"?>
<svg id="Layer_1" xmlns="http://www.w3.org/2000/svg" version="1.1" viewBox="0 0 448.6 448.6">
  <!-- Generator: Adobe Illustrator 29.7.1, SVG Export Plug-In . SVG Version: 2.1.1 Build 8)  -->
  <defs>
    <style>
      .st0 {
        stroke: #864636;
        stroke-miterlimit: 10;
        stroke-width: .9px;
      }

      .st1 {
        fill: #0d0d10;
      }
    </style>
  </defs>
  <g>
    <g>
      <path class="st1" d="M-581.7,382.4v-44.4h7.1v7.5c1.3-2.8,3.2-5,5.8-6.6,2.6-1.6,5.5-2.4,8.8-2.4,7.2,0,12,3.3,14.5,9.9,1.2-3,3.1-5.4,5.9-7.2,2.8-1.8,5.9-2.7,9.4-2.7,5.3,0,9.3,1.6,12.1,4.9,2.8,3.3,4.3,8,4.3,14.1v26.8h-7.5v-25.5c0-9.1-3.6-13.7-10.6-13.7s-6.6,1.3-8.8,3.9c-2.1,2.6-3.2,6.2-3.2,10.7v24.5h-7.5v-25.5c0-9-3.5-13.6-10.5-13.6s-6.8,1.3-8.9,3.9c-2.2,2.6-3.2,6.1-3.2,10.7v24.6h-7.5Z"/>
      <path class="st1" d="M-476.1,383.8c-4.4,0-8.4-1-11.9-3.1-3.5-2.1-6.2-4.9-8.3-8.4-2-3.5-3.1-7.6-3.1-12.1s1-8.4,3.1-12,4.9-6.4,8.4-8.5c3.5-2.1,7.4-3.1,11.8-3.1s8.4,1,11.9,3.1c3.5,2.1,6.3,4.9,8.3,8.4s3,7.6,3,12.1-1,8.4-3.1,11.9c-2.1,3.6-4.9,6.4-8.4,8.5-3.5,2.1-7.4,3.1-11.8,3.1h0ZM-476.1,377.1c3.1,0,5.8-.7,8.1-2.1s4.1-3.4,5.5-5.9c1.3-2.5,2-5.5,2-8.8s-.7-6.2-2-8.8-3.1-4.5-5.5-5.9-5-2.1-8.1-2.1-5.7.7-8,2.1-4.2,3.4-5.5,5.9c-1.3,2.5-2,5.5-2,8.8s.7,6.2,2,8.8c1.3,2.5,3.2,4.5,5.5,5.9,2.3,1.4,5,2.1,8,2.1Z"/>
      <path class="st1" d="M-438,382.4v-44.4h7.1v7.6c1.3-2.8,3.3-5.1,5.9-6.6,2.6-1.6,5.6-2.4,9-2.4,5.3,0,9.3,1.6,12.1,4.9,2.8,3.3,4.3,8,4.3,14.1v26.8h-7.5v-25.5c0-9.1-3.5-13.7-10.6-13.7s-7.1,1.3-9.3,3.9c-2.2,2.6-3.4,6.2-3.4,10.7v24.5h-7.5Z"/>
      <path class="st1" d="M-361.8,383.8c-4.4,0-8.4-1-11.9-3.1-3.5-2.1-6.3-4.9-8.3-8.4-2-3.5-3.1-7.6-3.1-12.1s1-8.4,3.1-12c2.1-3.5,4.9-6.4,8.4-8.5,3.5-2.1,7.4-3.1,11.8-3.1s8.4,1,11.9,3.1c3.5,2.1,6.3,4.9,8.3,8.4,2,3.5,3,7.6,3,12.1s-1,8.4-3.1,11.9c-2.1,3.6-4.9,6.4-8.4,8.5-3.5,2.1-7.4,3.1-11.8,3.1h0ZM-361.8,377.1c3.1,0,5.8-.7,8.1-2.1,2.3-1.4,4.1-3.4,5.5-5.9,1.3-2.5,2-5.5,2-8.8s-.7-6.2-2-8.8c-1.3-2.5-3.1-4.5-5.5-5.9-2.3-1.4-5-2.1-8.1-2.1s-5.7.7-8,2.1c-2.3,1.4-4.2,3.4-5.5,5.9-1.3,2.5-2,5.5-2,8.8s.7,6.2,2,8.8c1.3,2.5,3.2,4.5,5.5,5.9,2.3,1.4,5,2.1,8,2.1Z"/>
      <path class="st1" d="M-324.7,404.1l12.2-25.4-19.1-40.7h8.2l14.9,32.6,14.4-32.6h7.9l-30.7,66.1h-7.8,0Z"/>
      <path class="st1" d="M-257.8,383.8c-4.1,0-7.7-1-11-3-3.2-2-5.8-4.8-7.6-8.4-1.8-3.6-2.8-7.6-2.8-12.2s1-8.4,3-11.9c2-3.6,4.7-6.4,8-8.5,3.4-2.1,7.1-3.1,11.2-3.1s6.5.8,9.3,2.5,5.1,4,6.8,7l.2-8.1h7.4v44.4h-7.4l-.2-8.1c-1.8,3-4.1,5.4-7,7-2.9,1.6-6.2,2.5-9.9,2.5h0ZM-255.9,377.1c3.1,0,5.8-.7,8.1-2.1,2.3-1.4,4.1-3.4,5.5-5.9,1.3-2.5,2-5.5,2-8.8s-.7-6.2-2-8.8c-1.3-2.5-3.1-4.5-5.5-5.9-2.3-1.4-5-2.1-8.1-2.1s-5.7.7-8,2.1c-2.3,1.4-4.2,3.4-5.5,5.9-1.3,2.5-2,5.5-2,8.8s.7,6.2,2,8.8c1.3,2.5,3.2,4.5,5.5,5.9,2.3,1.4,5,2.1,8,2.1Z"/>
    </g>
    <g>
      <path class="st1" d="M-286.4,240.8c-50.7,2.3-101.3,3.3-152.3,3.7-25.8.2-51.6.2-77.5.2-20.5,0-45.8,5.5-65.4,0-23.1-6.5,23.5-32.3,29.8-36.6,17.6-12.2,36-23.5,55.4-32.8,17.8-8.5,52.4-26,72.4-17.7,8.1,3.4,14.6,9.7,21.5,15.2,6.9,5.5,15,10.5,23.8,10.2,9.3-.3,17.3-6.4,24.9-11.9,30.7-22.1,61.8-9.1,89.7,10.8,10.7,7.6,27.7,20.7,34.4,32,3.9,6.5,4,16-1.9,20.8-3.9,3.1-9.2,3.6-14.2,3.9-13.5.8-27,1.5-40.5,2.1h0Z"/>
      <path class="st1" d="M-363.5,116.9c-5.2,27.1,35.6,42.5,49.1,18,7.4-13.4.3-32.5-14-37.8s-32.2,4.8-35,19.8h0Z"/>
      <path class="st1" d="M-290.6,86.3c-18.5-.9-39.2-4.6-44-4.9-41.2-3.3-82.4-6.5-123.7-8.4-3-.1-6.4-.4-8.6-2.3-7.3-6.3,11-15.8,14.9-18.5,7.3-5.1,15.1-9.5,22.8-14,23.1-13.6,49.2-25.7,77.5-26.7,39.2-1.3,79.1,29.4,91.9,62.9,4.2,10.9-12.1,12.9-30.7,12h0Z"/>
      <path class="st1" d="M-401.4,1.8c-10.8-5.4-18.5-18.9-13.4-29.8,8.6-18,32.4-20.5,43.7-7.7,5.5,6.2,8.4,19.5,6.6,27.6-4,18.9-23.4,16.6-37,9.8h0Z"/>
    </g>
  </g>
  <g>
    <path class="st0" d="M-588.6,447.4c0-13.1,9.8-22.9,22.7-22.9s19,6.2,21.4,16.2h-6.9c-2.1-6.2-7.7-10.1-14.5-10.1s-16,7-16,16.7,6.8,16.7,16,16.7,12.4-3.9,14.5-10.1h6.9c-2.4,10.2-11.3,16.2-21.4,16.2s-22.7-9.8-22.7-22.9h0Z"/>
    <path class="st0" d="M-487.6,447.4c0,13.2-10,22.9-22.7,22.9s-22.6-9.8-22.6-22.9,10.2-22.9,22.6-22.9,22.7,9.7,22.7,22.9ZM-526.3,447.4c0,9.7,7,16.6,15.9,16.6s16-6.9,16-16.6-7.1-16.6-16-16.6-15.9,6.8-15.9,16.6Z"/>
    <path class="st0" d="M-435.3,441.4v27.9h-6.6v-26.6c0-7.9-3.9-11.9-11.1-11.9s-13.9,6.3-13.9,16v22.6h-6.6v-44h6.6v8.7c3-5.9,8.1-9.6,15.8-9.6s15.9,6.2,15.9,17h0Z"/>
    <path class="st0" d="M-381.6,441.4v27.9h-6.6v-26.6c0-7.9-3.9-11.9-11.1-11.9s-13.9,6.3-13.9,16v22.6h-6.6v-44h6.6v8.7c3-5.9,8.1-9.6,15.8-9.6s15.9,6.2,15.9,17h0Z"/>
    <path class="st0" d="M-323.5,449.4h-37.7c.6,9.1,7.1,14.6,16,14.6s11.1-2.6,13.8-7.7h6.9c-3.7,9.4-11.7,13.9-20.9,13.9-13,0-22.6-9.3-22.6-22.7s9.4-23,22.5-23,22.6,10.4,22,24.9h0ZM-360.9,443.1h30.2c-1.4-7.4-6.9-12.4-14.8-12.4s-13.8,5.2-15.4,12.4h0Z"/>
    <path class="st0" d="M-311.6,447.4c0-13.1,9.8-22.9,22.7-22.9s19,6.2,21.4,16.2h-6.9c-2.1-6.2-7.7-10.1-14.5-10.1s-16,7-16,16.7,6.8,16.7,16,16.7,12.4-3.9,14.5-10.1h6.9c-2.4,10.2-11.3,16.2-21.4,16.2s-22.7-9.8-22.7-22.9h0Z"/>
    <path class="st0" d="M-221.9,467.4c-2.4,1.3-7.1,2.8-11.9,2.8-9.4,0-15.8-6.1-15.8-17.7v-21h-8.5v-6.2h8.5v-10.6l6.6-1.4v12h19.8v6.2h-19.8v20.6c0,7.5,3.4,11.8,10.2,11.8s6.3-1,9.6-2.2l1.2,5.5h0Z"/>
  </g>
  <g>
    <path class="st1" d="M332.3,340.3c-50.7,2.3-101.3,3.3-152.3,3.7-25.8.2-51.6.2-77.5.2-20.5,0-45.8,5.5-65.4,0-23.1-6.5,23.5-32.3,29.8-36.6,17.6-12.2,36-23.5,55.4-32.8,17.8-8.5,52.4-26,72.4-17.7,8.1,3.4,14.6,9.7,21.5,15.2,6.9,5.5,15,10.5,23.8,10.2,9.3-.3,17.3-6.4,24.9-11.9,30.7-22.1,61.8-9.1,89.7,10.8,10.7,7.6,27.7,20.7,34.4,32,3.9,6.5,4,16-1.9,20.8-3.9,3.1-9.2,3.6-14.2,3.9-13.5.8-27,1.5-40.5,2.1h0Z"/>
    <path class="st1" d="M255.2,216.5c-5.2,27.1,35.6,42.5,49.1,18,7.4-13.4.3-32.5-14-37.8s-32.2,4.8-35,19.8h0Z"/>
    <path class="st1" d="M328.1,185.9c-18.5-.9-39.2-4.6-44-4.9-41.2-3.3-82.4-6.5-123.7-8.4-3-.1-6.4-.4-8.6-2.3-7.3-6.3,11-15.8,14.9-18.5,7.3-5.1,15.1-9.5,22.8-14,23.1-13.6,49.2-25.7,77.5-26.7,39.2-1.3,79.1,29.4,91.9,62.9,4.2,10.9-12.1,12.9-30.7,12h0Z"/>
    <path class="st1" d="M217.3,101.4c-10.8-5.4-18.5-18.9-13.4-29.8,8.6-18,32.4-20.5,43.7-7.7,5.5,6.2,8.4,19.5,6.6,27.6-4,18.9-23.4,16.6-37,9.8h0Z"/>
  </g>
</svg>